<svg
  class="clippy__sprite"
  viewBox="0 0 32 48"
  width="48"
  height="72"
  xmlns="http://www.w3.org/2000/svg"
  shape-rendering="crispEdges"
  aria-hidden="true"
>
  <rect x="14" y="2" width="4" height="4" fill="#e5e7eb" stroke="#374151" stroke-width="1" />
  <rect x="10" y="6" width="4" height="4" fill="#f3f4f6" stroke="#374151" stroke-width="1" />
  <rect x="6" y="10" width="4" height="4" fill="#fff" stroke="#374151" stroke-width="1" />
  <rect x="6" y="14" width="4" height="8" fill="#fff" stroke="#374151" stroke-width="1" />
  <rect x="10" y="22" width="4" height="4" fill="#fff" stroke="#374151" stroke-width="1" />
  <rect x="14" y="26" width="4" height="4" fill="#fff" stroke="#374151" stroke-width="1" />
  <rect x="18" y="30" width="4" height="4" fill="#fff" stroke="#374151" stroke-width="1" />
  <rect x="18" y="34" width="4" height="8" fill="#fff" stroke="#374151" stroke-width="1" />
  <rect x="14" y="42" width="4" height="4" fill="#fff" stroke="#374151" stroke-width="1" />
  <rect x="10" y="38" width="4" height="4" fill="#f3f4f6" stroke="#374151" stroke-width="1" />
  <rect x="10" y="14" width="8" height="8" fill="#fff" stroke="#374151" stroke-width="1" />
  <rect x="14" y="18" width="4" height="4" fill="#d1d5db" />
  <rect x="11" y="17" width="2" height="2" fill="#111827" />
  <rect x="17" y="17" width="2" height="2" fill="#111827" />
  <rect x="13" y="21" width="6" height="1" fill="#374151" />
</svg>
